<svg xmlns="http://www.w3.org/2000/svg" xmlns:xlink="http://www.w3.org/1999/xlink" width="21.751" height="16.851" viewBox="0 0 21.751 16.851">
  <defs>
    <clipPath id="clip-path">
      <rect id="Rectangle_121" data-name="Rectangle 121" width="21.751" height="16.85" transform="translate(0 0)" fill="none"/>
    </clipPath>
  </defs>
  <g id="Group_3060" data-name="Group 3060" transform="translate(0 0.002)">
    <g id="Group_3059" data-name="Group 3059" transform="translate(0 -0.002)" clip-path="url(#clip-path)">
      <path id="Path_1237" data-name="Path 1237" d="M14.977,14.922a11.567,11.567,0,0,0,1.843-.9.406.406,0,0,0-.038-.041c-.121-.1-.243-.191-.363-.289a.088.088,0,0,0-.109-.014,12.47,12.47,0,0,1-1.257.515A12.2,12.2,0,0,1,13.1,14.7c-.272.047-.546.087-.82.124-.148.02-.3.026-.445.04a11.942,11.942,0,0,1-1.2.032c-.345,0-.688-.028-1.03-.063-.4-.041-.8-.1-1.2-.182a13.049,13.049,0,0,1-1.779-.493,12.464,12.464,0,0,1-1.2-.49.085.085,0,0,0-.1.01c-.118.1-.238.189-.357.284a.6.6,0,0,0-.05.052,11.675,11.675,0,0,0,1.844.9c-.045.092-.084.175-.127.256a13.817,13.817,0,0,1-.966,1.573c-.075.106-.077.111-.2.069-.346-.119-.693-.237-1.036-.365-.43-.161-.848-.347-1.262-.545a17.769,17.769,0,0,1-1.76-.97c-.426-.266-.839-.551-1.244-.849a.194.194,0,0,1-.086-.162c-.013-.26-.033-.519-.049-.779-.007-.119-.014-.238-.015-.357C.007,12.4,0,12.011,0,11.621c0-.284.024-.568.042-.852.013-.2.027-.406.05-.607C.135,9.808.177,9.456.23,9.1A16.518,16.518,0,0,1,.574,7.448a18.44,18.44,0,0,1,.648-2.022c.2-.512.417-1.013.655-1.507A21.55,21.55,0,0,1,3.1,1.74c.055-.087.113-.172.167-.26A.26.26,0,0,1,3.39,1.37c.378-.159.752-.324,1.133-.476A15.242,15.242,0,0,1,5.989.4C6.558.242,7.134.112,7.717.006c.077-.014.083-.011.121.06q.279.511.51,1.046c.032.073.031.073.107.064.258-.032.516-.067.775-.1.159-.018.319-.026.478-.039.276-.021.552-.035.829-.034.165,0,.331-.014.5-.01.284.006.569.012.853.034.389.03.777.074,1.165.113.078.008.156.022.234.032s.074.008.1-.057c.122-.264.243-.527.367-.79.042-.088.089-.174.136-.26s.047-.079.128-.062c.4.086.808.164,1.208.262a16.628,16.628,0,0,1,2.432.8c.231.1.457.2.686.3a.252.252,0,0,1,.115.1c.277.422.547.849.791,1.291.213.387.422.778.617,1.174a17.85,17.85,0,0,1,.784,1.859,18.388,18.388,0,0,1,.55,1.814A16.942,16.942,0,0,1,21.562,9.5q.056.431.1.864c.022.229.037.459.049.689.013.246.019.493.029.739,0,.124.017.249.015.373,0,.195-.017.389-.026.584,0,.06,0,.119,0,.179-.011.219-.022.438-.036.657-.008.13-.023.259-.031.389a.134.134,0,0,1-.067.1c-.174.125-.347.252-.522.375a17.276,17.276,0,0,1-1.632,1.012c-.238.13-.479.256-.722.376a16.51,16.51,0,0,1-1.675.716c-.25.091-.5.174-.754.261l-.054.017c-.086.024-.088.024-.14-.051a13.492,13.492,0,0,1-.942-1.522c-.049-.094-.1-.187-.148-.281a.616.616,0,0,1-.023-.06m1.462-5.728a2.275,2.275,0,0,0-.267-1.075,2.006,2.006,0,0,0-1-.95,1.7,1.7,0,0,0-1.028-.107,1.876,1.876,0,0,0-1.245.885,2.4,2.4,0,0,0-.345,1.7,2.217,2.217,0,0,0,.8,1.438,1.711,1.711,0,0,0,1.557.359,1.874,1.874,0,0,0,1.107-.792,2.446,2.446,0,0,0,.421-1.458M7.253,7.033H7.107a.415.415,0,0,0-.049,0,1.853,1.853,0,0,0-1.21.669A2.321,2.321,0,0,0,5.3,9.058a2.451,2.451,0,0,0,.079.863,2.214,2.214,0,0,0,.734,1.156,1.742,1.742,0,0,0,1.348.407,1.821,1.821,0,0,0,1.1-.553,2.1,2.1,0,0,0,.425-.622,2.559,2.559,0,0,0,.218-1.26,2.266,2.266,0,0,0-.528-1.331,1.809,1.809,0,0,0-1.425-.685" transform="translate(0 0.001)" fill="#fff"/>
    </g>
  </g>
</svg>
