<svg xmlns="http://www.w3.org/2000/svg" width="18.066" height="16.851" viewBox="0 0 18.066 16.851">
  <path id="Icon_awesome-instagram" data-name="Icon awesome-instagram" d="M9.03,6.343A4.477,4.477,0,0,0,4.4,10.663a4.477,4.477,0,0,0,4.631,4.32,4.477,4.477,0,0,0,4.631-4.32A4.477,4.477,0,0,0,9.03,6.343Zm0,7.129a2.92,2.92,0,0,1-3.011-2.809A2.918,2.918,0,0,1,9.03,7.855a2.918,2.918,0,0,1,3.011,2.809A2.92,2.92,0,0,1,9.03,13.472Zm5.9-7.306a1.083,1.083,0,0,1-2.16,0,1.083,1.083,0,0,1,2.16,0ZM18,7.189a4.807,4.807,0,0,0-1.459-3.531A5.6,5.6,0,0,0,12.754,2.3c-1.491-.079-5.961-.079-7.452,0A5.594,5.594,0,0,0,1.517,3.654,4.822,4.822,0,0,0,.058,7.185c-.085,1.391-.085,5.561,0,6.953a4.807,4.807,0,0,0,1.459,3.531A5.608,5.608,0,0,0,5.3,19.03c1.491.079,5.961.079,7.452,0a5.564,5.564,0,0,0,3.784-1.361A4.838,4.838,0,0,0,18,14.138c.085-1.391.085-5.558,0-6.949Zm-1.926,8.442a2.954,2.954,0,0,1-1.717,1.6c-1.189.44-4.01.338-5.324.338s-4.139.1-5.324-.338a2.954,2.954,0,0,1-1.717-1.6c-.472-1.109-.363-3.741-.363-4.967S1.521,6.8,1.989,5.7a2.953,2.953,0,0,1,1.717-1.6c1.189-.44,4.01-.338,5.324-.338s4.139-.1,5.324.338a2.954,2.954,0,0,1,1.717,1.6c.472,1.109.363,3.741.363,4.967S16.542,14.525,16.071,15.631Z" transform="translate(0.005 -2.238)" fill="#fff"/>
</svg>
