<svg xmlns="http://www.w3.org/2000/svg" xmlns:xlink="http://www.w3.org/1999/xlink" width="42.136" height="46.182" viewBox="0 0 42.136 46.182">
  <defs>
    <filter id="Icon_awesome-fire" x="0" y="0" width="42.136" height="46.182" filterUnits="userSpaceOnUse">
      <feOffset input="SourceAlpha"/>
      <feGaussianBlur stdDeviation="5" result="blur"/>
      <feFlood flood-color="#12c805" flood-opacity="0.569"/>
      <feComposite operator="in" in2="blur"/>
      <feComposite in="SourceGraphic"/>
    </filter>
    <filter id="Icon_awesome-fire-2" x="0" y="0" width="42.136" height="46.182" filterUnits="userSpaceOnUse">
      <feOffset dy="3" input="SourceAlpha"/>
      <feGaussianBlur stdDeviation="3" result="blur-2"/>
      <feFlood flood-opacity="0.161" result="color"/>
      <feComposite operator="out" in="SourceGraphic" in2="blur-2"/>
      <feComposite operator="in" in="color"/>
      <feComposite operator="in" in2="SourceGraphic"/>
    </filter>
  </defs>
  <g data-type="innerShadowGroup">
    <g transform="matrix(1, 0, 0, 1, 0, 0)" filter="url(#Icon_awesome-fire)">
      <path id="Icon_awesome-fire-3" data-name="Icon awesome-fire" d="M6.827.754a.76.76,0,0,0-1.4-.412C1.517,6.063,7.079,6.321,7.079,9.1a2.023,2.023,0,1,1-4.045-.03V6.37a.759.759,0,0,0-1.309-.521A6.319,6.319,0,0,0,0,10.113a6.068,6.068,0,0,0,12.136,0c0-5.382-5.31-6.1-5.31-9.359Z" transform="translate(15 15)" fill="#12c805"/>
    </g>
    <g transform="matrix(1, 0, 0, 1, 0, 0)" filter="url(#Icon_awesome-fire-2)">
      <path id="Icon_awesome-fire-4" data-name="Icon awesome-fire" d="M6.827.754a.76.76,0,0,0-1.4-.412C1.517,6.063,7.079,6.321,7.079,9.1a2.023,2.023,0,1,1-4.045-.03V6.37a.759.759,0,0,0-1.309-.521A6.319,6.319,0,0,0,0,10.113a6.068,6.068,0,0,0,12.136,0c0-5.382-5.31-6.1-5.31-9.359Z" transform="translate(15 15)" fill="#fff"/>
    </g>
  </g>
</svg>
